<?xml version="1.0" standalone="no"?><!DOCTYPE svg PUBLIC "-//W3C//DTD SVG 1.1//EN" "http://www.w3.org/Graphics/SVG/1.1/DTD/svg11.dtd"><svg t="1516199736822" class="icon" style="" viewBox="0 0 1024 1024" version="1.1" xmlns="http://www.w3.org/2000/svg" p-id="834" xmlns:xlink="http://www.w3.org/1999/xlink" width="64" height="64"><defs><style type="text/css"></style></defs><path d="M914.285715 292.571428 109.714285 292.571428C49.225143 292.571428 0 243.346285 0 182.857143L0 109.714285C0 49.225143 49.225143 0 109.714285 0L914.285715 0C974.774854 0 1024 49.225143 1024 109.714285L1024 182.857143C1024 243.346285 974.774854 292.571428 914.285715 292.571428L914.285715 292.571428ZM109.714285 73.142857C89.6 73.142857 73.142857 89.6 73.142857 109.714285L73.142857 182.857143C73.142857 202.971428 89.6 219.428572 109.714285 219.428572L914.285715 219.428572C934.4 219.428572 950.857146 202.971428 950.857146 182.857143L950.857146 109.714285C950.857146 89.6 934.4 73.142857 914.285715 73.142857L109.714285 73.142857 109.714285 73.142857ZM182.857143 109.714285C162.669715 109.714285 146.285715 126.098285 146.285715 146.285715 146.285715 166.473143 162.669715 182.857143 182.857143 182.857143 203.044572 182.857143 219.428572 166.473143 219.428572 146.285715 219.428572 126.098285 203.044572 109.714285 182.857143 109.714285L182.857143 109.714285ZM329.142857 109.714285C308.955428 109.714285 292.571428 126.098285 292.571428 146.285715 292.571428 166.473143 308.955428 182.857143 329.142857 182.857143 349.330285 182.857143 365.714285 166.473143 365.714285 146.285715 365.714285 126.098285 349.330285 109.714285 329.142857 109.714285L329.142857 109.714285ZM877.714285 146.285715C877.714285 126.098285 861.330285 109.714285 841.142854 109.714285L694.857146 109.714285C674.669715 109.714285 658.285715 126.098285 658.285715 146.285715L658.285715 146.285715C658.285715 166.473143 674.669715 182.857143 694.857146 182.857143L841.142854 182.857143C861.330285 182.857143 877.714285 166.473143 877.714285 146.285715L877.714285 146.285715 877.714285 146.285715ZM914.285715 658.285715 109.714285 658.285715C49.225143 658.285715 0 609.060572 0 548.571428L0 475.428572C0 414.939428 49.225143 365.714285 109.714285 365.714285L914.285715 365.714285C974.774854 365.714285 1024 414.939428 1024 475.428572L1024 548.571428C1024 609.060572 974.774854 658.285715 914.285715 658.285715L914.285715 658.285715ZM109.714285 438.857143C89.6 438.857143 73.142857 455.314285 73.142857 475.428572L73.142857 548.571428C73.142857 568.685715 89.6 585.142857 109.714285 585.142857L914.285715 585.142857C934.4 585.142857 950.857146 568.685715 950.857146 548.571428L950.857146 475.428572C950.857146 455.314285 934.4 438.857143 914.285715 438.857143L109.714285 438.857143 109.714285 438.857143ZM182.857143 475.428572C162.669715 475.428572 146.285715 491.812572 146.285715 512 146.285715 532.187428 162.669715 548.571428 182.857143 548.571428 203.044572 548.571428 219.428572 532.187428 219.428572 512 219.428572 491.812572 203.044572 475.428572 182.857143 475.428572L182.857143 475.428572ZM329.142857 475.428572C308.955428 475.428572 292.571428 491.812572 292.571428 512 292.571428 532.187428 308.955428 548.571428 329.142857 548.571428 349.330285 548.571428 365.714285 532.187428 365.714285 512 365.714285 491.812572 349.330285 475.428572 329.142857 475.428572L329.142857 475.428572ZM877.714285 512C877.714285 491.812572 861.330285 475.428572 841.142854 475.428572L694.857146 475.428572C674.669715 475.428572 658.285715 491.812572 658.285715 512L658.285715 512C658.285715 532.187428 674.669715 548.571428 694.857146 548.571428L841.142854 548.571428C861.330285 548.571428 877.714285 532.187428 877.714285 512L877.714285 512 877.714285 512ZM914.285715 1024 109.714285 1024C49.225143 1024 0 974.774854 0 914.285715L0 841.142854C0 780.653715 49.225143 731.42857 109.714285 731.42857L914.285715 731.42857C974.774854 731.42857 1024 780.653715 1024 841.142854L1024 914.285715C1024 974.774854 974.774854 1024 914.285715 1024L914.285715 1024ZM109.714285 804.57143C89.6 804.57143 73.142857 821.02857 73.142857 841.142854L73.142857 914.285715C73.142857 934.4 89.6 950.857146 109.714285 950.857146L914.285715 950.857146C934.4 950.857146 950.857146 934.4 950.857146 914.285715L950.857146 841.142854C950.857146 821.02857 934.4 804.57143 914.285715 804.57143L109.714285 804.57143 109.714285 804.57143ZM182.857143 841.142854C162.669715 841.142854 146.285715 857.526854 146.285715 877.714285 146.285715 897.901715 162.669715 914.285715 182.857143 914.285715 203.044572 914.285715 219.428572 897.901715 219.428572 877.714285 219.428572 857.526854 203.044572 841.142854 182.857143 841.142854L182.857143 841.142854ZM329.142857 841.142854C308.955428 841.142854 292.571428 857.526854 292.571428 877.714285 292.571428 897.901715 308.955428 914.285715 329.142857 914.285715 349.330285 914.285715 365.714285 897.901715 365.714285 877.714285 365.714285 857.526854 349.330285 841.142854 329.142857 841.142854L329.142857 841.142854ZM877.714285 877.714285C877.714285 857.526854 861.330285 841.142854 841.142854 841.142854L694.857146 841.142854C674.669715 841.142854 658.285715 857.526854 658.285715 877.714285L658.285715 877.714285C658.285715 897.901715 674.669715 914.285715 694.857146 914.285715L841.142854 914.285715C861.330285 914.285715 877.714285 897.901715 877.714285 877.714285L877.714285 877.714285 877.714285 877.714285Z" p-id="835"></path></svg>