<?xml version="1.0" standalone="no"?><!DOCTYPE svg PUBLIC "-//W3C//DTD SVG 1.1//EN" "http://www.w3.org/Graphics/SVG/1.1/DTD/svg11.dtd"><svg t="1516201788470" class="icon" style="" viewBox="0 0 1037 1024" version="1.1" xmlns="http://www.w3.org/2000/svg" p-id="6120" xmlns:xlink="http://www.w3.org/1999/xlink" width="64.8125" height="64"><defs><style type="text/css"></style></defs><path d="M868.667148 16.677119c-84.133991 0-152.593492 68.437039-152.593492 152.572051 0 4.287206 0.175613 8.529488 0.52786 12.728887L237.979237 402.371479c-24.314247-16.356523-53.553828-25.919269-84.991637-25.919269-84.156453 0-152.615954 68.437039-152.615954 152.593492 0 84.133991 68.459501 152.572051 152.615954 152.572051 36.362122 0 69.822544-12.795252 96.071598-34.119992l248.7968 164.816981c-4.35255 14.157275-6.704949 29.173216-6.704949 44.738459 0 84.133991 68.459501 152.572051 152.615954 152.572051 84.155432 0 152.614933-68.437039 152.614933-152.572051s-68.459501-152.593492-152.614933-152.593492c-46.650804 0-88.4651 21.038858-116.494789 54.125592L288.016719 600.077118c11.211671-21.236933 17.565394-45.398029 17.565394-71.032437 0-29.371291-8.332433-56.829217-22.77559-80.132667l451.272581-207.796245c25.743656 48.013847 76.418246 80.726893 134.589065 80.726893 84.156453 0 152.614933-68.437039 152.614933-152.57103C1021.283102 85.115178 952.823601 16.677119 868.667148 16.677119L868.667148 16.677119 868.667148 16.677119zM643.767003 765.487303c50.497956 0 91.564876 41.06692 91.564876 91.564876 0 50.475494-41.06692 91.542414-91.564876 91.542414s-91.564876-41.06692-91.564876-91.542414C552.202127 806.554223 593.269047 765.487303 643.767003 765.487303L643.767003 765.487303 643.767003 765.487303zM152.988621 620.588116c-50.497956 0-91.587338-41.06692-91.587338-91.543435 0-50.497956 41.089382-91.564876 91.587338-91.564876 50.475494 0 91.564876 41.06692 91.564876 91.564876C244.553497 579.521196 203.464115 620.588116 152.988621 620.588116L152.988621 620.588116 152.988621 620.588116zM868.667148 260.814045c-50.476515 0-91.564876-41.06692-91.564876-91.564876 0-50.476515 41.088361-91.543435 91.564876-91.543435 50.497956 0 91.564876 41.06692 91.564876 91.543435C960.232024 219.747125 919.166125 260.814045 868.667148 260.814045L868.667148 260.814045 868.667148 260.814045z" p-id="6121"></path></svg>